<svg width="22" height="22" viewBox="0 0 22 22" fill="none" xmlns="http://www.w3.org/2000/svg">
<path d="M11 1.375C8.45682 1.40568 6.02645 2.42959 4.22802 4.22802C2.42959 6.02645 1.40568 8.45682 1.375 11C1.40568 13.5432 2.42959 15.9735 4.22802 17.772C6.02645 19.5704 8.45682 20.5943 11 20.625C13.5432 20.5943 15.9735 19.5704 17.772 17.772C19.5704 15.9735 20.5943 13.5432 20.625 11C20.5943 8.45682 19.5704 6.02645 17.772 4.22802C15.9735 2.42959 13.5432 1.40568 11 1.375ZM16.5 11.6875H11.6875V16.5H10.3125V11.6875H5.5V10.3125H10.3125V5.5H11.6875V10.3125H16.5V11.6875Z" fill="#832828" fill-opacity="0.9"/>
</svg>
