<svg width="14" height="18" viewBox="0 0 14 18" fill="none" xmlns="http://www.w3.org/2000/svg">
<path d="M7 0C4.7944 0 3 1.7944 3 4C3 6.2056 4.7944 8 7 8C9.2056 8 11 6.2056 11 4C11 1.7944 9.2056 0 7 0Z" fill="black" fill-opacity="0.8"/>
<path d="M12.2256 12.196C11.0757 10.7799 9.55139 10 7.93333 10H6.06667C4.44864 10 2.92426 10.7799 1.77439 12.196C0.630156 13.6052 0 15.4654 0 17.434C0 17.7466 0.208942 18 0.466667 18H13.5333C13.7911 18 14 17.7466 14 17.434C14 15.4654 13.3698 13.6052 12.2256 12.196Z" fill="black" fill-opacity="0.8"/>
</svg>
