<svg width="15" height="16" viewBox="0 0 15 16" fill="none" xmlns="http://www.w3.org/2000/svg">
<path d="M5.83333 12.1667L1.66667 8L2.84167 6.81667L5.83333 9.80833L12.1583 3.48333L13.3333 4.66667L5.83333 12.1667ZM13.3333 0.5H1.66667C0.741667 0.5 0 1.24167 0 2.16667V13.8333C0 14.2754 0.175595 14.6993 0.488155 15.0118C0.800716 15.3244 1.22464 15.5 1.66667 15.5H13.3333C13.7754 15.5 14.1993 15.3244 14.5118 15.0118C14.8244 14.6993 15 14.2754 15 13.8333V2.16667C15 1.72464 14.8244 1.30072 14.5118 0.988155C14.1993 0.675595 13.7754 0.5 13.3333 0.5Z" fill="black" fill-opacity="0.9"/>
</svg>
