<svg width="23" height="23" viewBox="0 0 23 23" fill="none" xmlns="http://www.w3.org/2000/svg">
<path fill-rule="evenodd" clip-rule="evenodd" d="M14.1895 4.74997C14.4708 4.46876 14.8523 4.31079 15.25 4.31079C15.6477 4.31079 16.0292 4.46876 16.3105 4.74997L18.25 6.68947C18.5312 6.97076 18.6892 7.35222 18.6892 7.74997C18.6892 8.14772 18.5312 8.52918 18.25 8.81047L17.0605 9.99997L13 5.93947L14.1895 4.74997ZM11.9395 6.99997L5.1895 13.75C4.90818 14.0312 4.75008 14.4127 4.75 14.8105V16.75C4.75 17.1478 4.90804 17.5293 5.18934 17.8106C5.47064 18.0919 5.85218 18.25 6.25 18.25H8.1895C8.58729 18.2499 8.96876 18.0918 9.25 17.8105L16 11.0605L11.9395 6.99997Z" fill="black" fill-opacity="0.8"/>
<rect x="1" y="1" width="21" height="21" rx="2" stroke="black" stroke-opacity="0.8" stroke-width="2"/>
</svg>
