<svg width="20" height="20" viewBox="0 0 20 20" fill="none" xmlns="http://www.w3.org/2000/svg">
<path d="M10 4.49977C10.1989 4.49977 10.3897 4.57879 10.5303 4.71943C10.671 4.86008 10.75 5.05083 10.75 5.24974V11.4994C10.75 11.6983 10.671 11.8891 10.5303 12.0297C10.3897 12.1704 10.1989 12.2494 10 12.2494C9.8011 12.2494 9.61033 12.1704 9.46968 12.0297C9.32903 11.8891 9.25001 11.6983 9.25001 11.4994V5.24974C9.25001 5.05083 9.32903 4.86008 9.46968 4.71943C9.61033 4.57879 9.8011 4.49977 10 4.49977ZM10 15.4972C10.2652 15.4972 10.5196 15.3919 10.7071 15.2043C10.8947 15.0168 11 14.7625 11 14.4973C11 14.2321 10.8947 13.9777 10.7071 13.7902C10.5196 13.6027 10.2652 13.4973 10 13.4973C9.73479 13.4973 9.48044 13.6027 9.2929 13.7902C9.10537 13.9777 9.00001 14.2321 9.00001 14.4973C9.00001 14.7625 9.10537 15.0168 9.2929 15.2043C9.48044 15.3919 9.73479 15.4972 10 15.4972ZM10 0C15.523 0 20 4.47677 20 9.9995C20 15.5222 15.523 19.999 10 19.999C8.404 20.0012 6.83083 19.6198 5.41301 18.887L1.58701 19.954C1.37355 20.0136 1.14809 20.0153 0.933732 19.9591C0.719374 19.9028 0.523824 19.7906 0.367118 19.6339C0.210412 19.4772 0.0981849 19.2817 0.0419355 19.0673C-0.0143139 18.853 -0.0125631 18.6275 0.0470083 18.4141L1.11501 14.5913C0.38036 13.1723 -0.0020688 11.5974 8.41695e-06 9.9995C8.41695e-06 4.47677 4.47701 0 10 0ZM10 1.49992C7.74567 1.49992 5.58366 2.39541 3.9896 3.98939C2.39554 5.58337 1.50001 7.74527 1.50001 9.9995C1.50001 11.4694 1.87301 12.8823 2.57301 14.1363L2.72301 14.4063L1.61101 18.3901L5.59801 17.2781L5.86801 17.4281C7.00239 18.0588 8.26614 18.4213 9.56236 18.4879C10.8586 18.5545 12.1528 18.3233 13.3458 17.8122C14.5389 17.3011 15.599 16.5235 16.445 15.5392C17.2909 14.5549 17.9002 13.3899 18.2261 12.1337C18.552 10.8774 18.5858 9.56316 18.325 8.29177C18.0643 7.02038 17.5158 5.82559 16.7216 4.79902C15.9275 3.77245 14.9088 2.94137 13.7437 2.3695C12.5786 1.79764 11.2979 1.50017 10 1.49992Z" fill="#CA2222"/>
</svg>
